<?xml version="1.0" standalone="no"?>
<!DOCTYPE svg PUBLIC "-//W3C//DTD SVG 20010904//EN"
 "http://www.w3.org/TR/2001/REC-SVG-20010904/DTD/svg10.dtd">
<svg version="1.0" xmlns="http://www.w3.org/2000/svg"
 width="700.000000pt" height="700.000000pt" viewBox="0 0 700.000000 700.000000"
 preserveAspectRatio="xMidYMid meet">
<metadata>
Created by potrace 1.11, written by Peter Selinger 2001-2013
</metadata>
<g transform="translate(0.000000,700.000000) scale(0.100000,-0.100000)"
fill="#000000" stroke="none">
<path d="M562 5971 c-23 -24 -29 -37 -26 -65 2 -37 8 -45 137 -206 89 -112 81
-101 167 -210 41 -52 77 -97 81 -100 3 -3 24 -28 45 -56 21 -28 72 -92 112
-143 l72 -91 -371 0 -371 0 -29 -29 c-37 -37 -40 -91 -6 -125 12 -13 182 -140
377 -281 195 -142 378 -274 405 -295 28 -20 133 -97 235 -171 102 -74 214
-155 250 -182 83 -60 86 -62 251 -182 75 -55 251 -183 391 -284 139 -102 254
-185 254 -185 1 -1 -11 -78 -26 -171 -15 -94 -31 -193 -34 -220 -9 -66 -16
-114 -22 -145 -16 -93 -36 -222 -40 -260 -3 -25 -7 -52 -9 -60 -2 -8 -7 -35
-10 -60 -3 -25 -10 -70 -15 -100 -5 -30 -12 -73 -15 -95 -3 -22 -10 -65 -15
-95 -5 -30 -12 -71 -14 -90 -3 -19 -9 -64 -15 -100 -5 -36 -12 -81 -15 -100
-3 -19 -7 -44 -10 -55 -2 -11 -7 -45 -11 -75 -4 -30 -9 -62 -10 -70 -5 -30
-51 -325 -66 -430 -5 -36 -12 -77 -14 -92 -3 -16 -7 -40 -9 -55 -13 -85 -19
-120 -22 -138 -3 -11 -7 -42 -10 -70 -3 -27 -7 -60 -9 -71 -2 -13 8 -34 26
-54 27 -29 34 -32 75 -27 24 2 50 10 58 16 8 7 169 323 359 704 l345 692 249
107 c231 100 424 184 1203 523 168 73 422 184 565 246 143 62 267 122 276 133
9 11 29 61 44 110 15 50 40 129 55 176 15 47 37 114 48 150 11 36 47 151 80
255 33 105 84 264 112 355 29 91 63 197 75 235 l23 70 454 1 c315 0 460 4 474
12 21 11 36 50 39 102 3 32 -18 64 -58 88 -107 66 -208 128 -252 156 -27 18
-120 76 -205 129 -85 53 -160 101 -167 107 -7 5 -15 10 -18 10 -4 0 -25 13
-48 29 -57 38 -99 59 -133 65 -30 6 -23 9 -434 -212 -41 -22 -138 -73 -215
-115 -77 -41 -234 -125 -350 -187 -115 -61 -261 -139 -325 -172 -63 -34 -119
-65 -125 -69 -5 -5 -15 -9 -21 -9 -11 0 -173 194 -548 654 -17 21 -48 59 -69
84 -21 25 -64 77 -95 116 -142 178 -177 212 -233 219 -24 3 -71 10 -104 16
-33 6 -76 14 -95 16 -19 3 -55 10 -80 15 -25 5 -97 18 -160 29 -145 26 -137
24 -370 66 -107 19 -208 37 -225 40 -16 2 -39 7 -50 9 -11 2 -87 16 -170 30
-82 14 -161 28 -175 31 -35 7 -201 37 -225 40 -11 2 -60 11 -110 20 -49 9
-103 19 -120 21 -16 3 -68 12 -115 21 -47 9 -94 17 -105 18 -18 3 -141 25
-503 91 -178 32 -203 32 -240 -5z m498 -230 c63 -12 126 -23 140 -26 14 -3 41
-8 60 -11 19 -3 69 -11 110 -19 41 -8 86 -16 100 -19 14 -2 52 -9 85 -15 33
-6 76 -13 95 -16 19 -3 96 -17 170 -30 74 -14 151 -27 170 -30 19 -3 82 -15
140 -25 58 -11 119 -22 135 -25 17 -3 82 -14 145 -26 63 -11 140 -24 170 -30
30 -5 66 -11 80 -14 14 -3 77 -14 140 -25 63 -11 126 -22 140 -25 14 -3 66
-12 115 -21 101 -17 127 -22 170 -30 17 -3 35 -7 42 -8 7 -1 15 -5 18 -8 5 -5
-56 -170 -100 -273 -7 -16 -88 -219 -180 -450 -91 -231 -173 -433 -181 -449
-8 -16 -14 -34 -14 -40 0 -6 -6 -22 -13 -36 -7 -14 -53 -127 -102 -252 -50
-125 -93 -227 -97 -225 -4 1 -139 166 -299 367 -160 201 -304 381 -320 400
-15 19 -78 98 -139 175 -62 77 -119 149 -128 160 -10 11 -159 198 -332 415
-327 410 -335 420 -360 450 -8 9 -26 32 -40 51 -14 18 -38 49 -54 68 -17 20
-37 44 -45 55 -15 17 -14 18 24 13 22 -3 92 -15 155 -26z m2527 -678 c70 -86
150 -184 177 -217 59 -73 754 -922 778 -951 9 -11 42 -51 73 -90 73 -91 63
-79 196 -240 63 -77 132 -162 154 -188 l39 -49 -95 7 c-51 3 -110 8 -129 10
-19 2 -75 7 -125 10 -49 3 -110 8 -135 10 -25 2 -83 7 -130 10 -47 4 -101 8
-120 10 -19 2 -80 6 -135 10 -55 4 -116 8 -135 10 -19 2 -78 6 -130 9 -52 4
-111 9 -130 11 -19 2 -75 7 -125 10 -49 3 -112 8 -140 10 -27 2 -86 7 -130 10
-44 3 -102 8 -130 10 -27 3 -84 7 -125 10 -41 3 -97 7 -125 10 -27 3 -83 7
-124 10 -41 3 -76 6 -77 8 -4 4 681 1716 688 1717 4 0 64 -71 135 -157z m2489
-224 c99 -61 183 -115 189 -120 5 -5 -94 -9 -237 -9 l-245 0 38 118 c22 64 39
123 39 130 0 16 -3 18 216 -119z m-4564 -176 c112 -140 208 -260 213 -266 23
-25 370 -462 378 -475 5 -8 -42 24 -105 69 -62 46 -187 137 -278 203 -91 65
-196 143 -235 171 -38 29 -221 161 -405 295 -184 133 -339 246 -344 251 -5 5
122 8 282 8 l291 -1 203 -255z m4100 115 c-22 -68 -63 -197 -92 -288 -135
-430 -172 -548 -184 -585 -8 -22 -23 -69 -34 -105 -11 -36 -42 -132 -67 -215
-26 -82 -51 -154 -55 -158 -4 -5 -23 11 -41 35 -19 24 -44 54 -55 68 -12 14
-119 144 -239 290 -119 146 -224 274 -233 285 -93 110 -143 178 -136 185 5 4
38 24 74 43 36 19 110 58 165 87 55 29 190 101 300 160 110 59 256 137 325
173 69 36 166 88 215 114 50 27 91 45 93 41 2 -4 -14 -63 -36 -130z m-2747
-1473 c50 -3 110 -8 135 -10 25 -2 86 -6 135 -10 50 -3 106 -8 125 -10 19 -3
76 -7 125 -10 50 -3 110 -7 135 -10 25 -2 83 -7 130 -10 47 -4 101 -8 120 -10
32 -3 110 -9 270 -21 139 -10 198 -15 240 -19 25 -2 88 -7 140 -11 52 -3 113
-8 135 -9 107 -9 222 -18 242 -18 45 -2 40 -4 -562 -266 -165 -71 -511 -222
-770 -335 -258 -112 -471 -203 -473 -202 -2 3 -57 215 -66 257 -3 13 -12 53
-21 89 -9 36 -18 72 -20 80 -2 8 -32 131 -68 272 -59 236 -66 275 -48 264 4
-3 47 -7 96 -11z m-43 -1065 c1 -14 -394 -817 -409 -829 -3 -3 -4 -1 -1 4 3 6
9 33 12 60 4 28 8 61 11 75 10 53 15 87 21 130 3 25 9 70 14 100 5 30 12 73
15 95 3 22 8 51 10 65 2 14 7 43 10 65 3 23 7 52 10 65 3 13 7 42 10 65 3 22
10 65 15 95 5 30 12 78 15 105 4 28 8 57 10 65 2 8 7 35 10 60 3 25 10 70 15
100 5 30 11 69 14 85 7 50 18 119 21 135 1 8 6 40 11 70 4 30 9 58 10 63 1 4
2 10 3 15 2 8 172 -665 173 -688z"/>
</g>
</svg>
